<?xml version="1.0" standalone="no"?>
<!DOCTYPE svg PUBLIC "-//W3C//DTD SVG 20010904//EN"
 "http://www.w3.org/TR/2001/REC-SVG-20010904/DTD/svg10.dtd">
<svg version="1.0" xmlns="http://www.w3.org/2000/svg"
 width="3200.000000pt" height="1800.000000pt" viewBox="0 0 3200.000000 1800.000000"
 preserveAspectRatio="xMidYMid meet">

<g transform="translate(0.000000,1800.000000) scale(0.100000,-0.100000)"
fill="#000000" stroke="none">
<path d="M0 9000 l0 -9000 16000 0 16000 0 0 9000 0 9000 -16000 0 -16000 0 0
-9000z m12950 2490 l0 -120 28 7 c52 15 146 8 181 -12 74 -44 91 -102 91 -316
l0 -139 -44 0 -44 0 -4 176 -3 176 -28 24 c-23 19 -39 24 -87 24 -96 0 -90 14
-90 -206 l0 -194 -40 0 -40 0 0 344 0 345 33 4 c17 2 35 5 40 5 4 1 7 -52 7
-118z m1260 -92 l1 -213 95 98 96 98 46 -3 46 -3 -98 -103 -99 -102 56 -58
c55 -55 128 -146 148 -184 9 -16 5 -18 -39 -18 -47 0 -51 2 -77 43 -31 47
-154 177 -167 177 -4 0 -8 -49 -8 -110 l0 -110 -40 0 -40 0 0 344 0 345 33 4
c17 2 35 5 40 5 4 1 7 -94 7 -210z m-745 152 c41 -45 -18 -110 -70 -76 -26 17
-32 45 -15 77 14 25 62 25 85 -1z m-875 -100 l0 -70 85 0 85 0 0 -35 0 -35
-85 0 -85 0 0 -143 c0 -187 14 -207 127 -186 25 5 47 8 48 7 2 -2 6 -17 9 -34
7 -31 6 -32 -44 -44 -64 -15 -134 -8 -169 17 -52 39 -56 58 -59 330 l-3 251
23 5 c68 13 68 13 68 -63z m1311 -86 c75 -44 88 -90 89 -302 l0 -153 -42 3
-43 3 -5 173 -5 174 -29 24 c-25 22 -36 25 -100 22 l-71 -3 -3 -197 -2 -198
-40 0 -40 0 0 229 0 229 63 10 c89 15 189 9 228 -14z m-431 -219 l0 -235 -45
0 -45 0 0 235 0 235 45 0 45 0 0 -235z m-200 -2145 l0 -340 -40 0 -40 0 0 340
0 340 40 0 40 0 0 -340z m-347 146 c46 -19 94 -72 112 -124 22 -67 20 -196 -6
-252 -39 -87 -92 -123 -179 -123 -60 0 -110 20 -134 55 -15 21 -16 13 -16
-105 l0 -127 -45 0 -45 0 0 340 0 340 45 0 c44 0 45 -1 45 -32 l0 -32 28 27
c15 14 38 30 52 36 36 14 106 13 143 -3z m780 0 c50 -18 76 -42 98 -91 16 -34
19 -67 19 -217 l0 -178 -40 0 c-38 0 -40 1 -40 32 l0 32 -27 -26 c-44 -41 -74
-52 -140 -51 -106 1 -163 56 -163 160 0 106 68 153 233 161 91 4 97 6 97 26 0
79 -114 118 -236 81 -65 -20 -64 -20 -64 15 0 19 7 33 19 40 56 30 182 38 244
16z m625 -12 c57 -42 67 -80 70 -286 l4 -188 -41 0 -41 0 0 158 c0 175 -9 222
-47 252 -54 42 -149 17 -182 -49 -19 -36 -21 -58 -21 -201 l0 -160 -40 0 -40
0 0 245 0 245 40 0 c39 0 40 -1 40 -36 l0 -37 25 27 c14 15 40 34 57 42 46 20
140 14 176 -12z m232 -2164 l0 -69 83 -3 82 -3 0 -30 0 -30 -82 -3 -83 -3 0
-157 c0 -195 0 -195 99 -200 l72 -4 -3 -32 -3 -31 -75 2 c-93 2 -124 13 -150
55 -18 30 -20 51 -20 201 l0 167 -30 0 c-28 0 -30 3 -30 35 0 32 2 35 30 35
l30 0 0 70 0 70 40 0 40 0 0 -70z m-2475 -71 c88 -24 140 -94 151 -207 l7 -62
-187 0 -186 0 0 -25 c0 -14 9 -43 20 -64 38 -76 146 -101 260 -61 30 11 59 19
63 20 5 0 7 -16 5 -37 -3 -32 -7 -38 -43 -51 -62 -23 -211 -21 -259 2 -129 64
-175 238 -100 376 52 97 158 139 269 109z m1047 1 c82 -23 137 -102 146 -207
l5 -63 -188 0 -188 0 6 -37 c21 -127 153 -165 332 -96 14 5 16 -1 13 -32 -3
-34 -7 -40 -43 -53 -23 -8 -78 -15 -130 -16 -74 0 -97 3 -131 21 -51 27 -98
80 -115 130 -19 55 -17 159 4 214 43 111 169 172 289 139z m606 -10 c28 -10
32 -17 32 -46 0 -19 -3 -34 -6 -34 -3 0 -31 7 -61 16 -98 29 -182 2 -220 -69
-12 -22 -17 -56 -17 -107 -1 -83 17 -126 66 -163 37 -27 115 -33 174 -13 63
21 64 21 64 -18 0 -31 -4 -36 -37 -48 -62 -21 -181 -16 -230 9 -83 45 -123
119 -123 233 0 34 5 80 11 101 22 71 85 130 164 150 38 10 140 4 183 -11z
m1365 9 c86 -23 146 -111 147 -211 l0 -58 -186 0 -186 0 7 -32 c17 -82 87
-138 170 -138 38 0 117 17 158 35 16 7 18 3 15 -31 -3 -36 -7 -40 -42 -52
-158 -51 -307 -5 -362 111 -26 57 -32 152 -14 218 35 124 164 194 293 158z
m-2632 -89 l65 -89 67 90 67 89 46 0 c53 0 57 10 -48 -131 -43 -58 -78 -109
-78 -113 0 -3 37 -56 83 -118 111 -150 106 -138 53 -138 l-46 0 -71 95 c-39
52 -74 95 -78 95 -3 -1 -37 -43 -74 -95 l-68 -95 -45 0 c-24 0 -44 3 -44 6 0
3 39 57 86 121 47 63 88 121 90 128 3 8 -31 62 -75 121 -45 59 -81 111 -81
116 0 4 19 8 43 8 41 -1 43 -2 108 -90z m1509 -82 c0 -190 9 -229 60 -256 32
-16 96 -9 129 15 53 39 61 73 61 251 l0 162 40 0 40 0 0 -250 0 -250 -40 0
c-39 0 -40 1 -40 36 l0 36 -39 -35 c-93 -84 -248 -46 -280 69 -6 21 -11 119
-11 217 l0 177 40 0 40 0 0 -172z"/>
<path d="M12764 9071 c-42 -26 -64 -84 -64 -174 0 -86 19 -131 70 -165 27 -18
44 -23 73 -19 78 10 116 60 124 162 7 79 -11 141 -52 182 -27 27 -41 33 -76
33 -25 0 -57 -8 -75 -19z"/>
<path d="M13544 8890 c-55 -22 -71 -99 -31 -145 31 -36 98 -44 147 -17 41 22
80 90 80 139 l0 33 -87 -1 c-49 0 -98 -4 -109 -9z"/>
<path d="M11951 6822 c-42 -21 -69 -56 -77 -99 l-6 -33 141 0 141 0 0 34 c0
88 -112 143 -199 98z"/>
<path d="M13015 6833 c-37 -10 -73 -43 -89 -83 -9 -22 -16 -45 -16 -50 0 -6
55 -10 140 -10 161 0 165 2 131 74 -31 63 -91 88 -166 69z"/>
<path d="M14975 6826 c-43 -19 -75 -58 -82 -100 l-6 -36 143 0 143 0 -6 36
c-8 50 -32 83 -72 100 -42 17 -81 17 -120 0z"/>
</g>
</svg>
